<?xml version="1.0" standalone="no"?>
<svg viewBox="0 0 200 200" xmlns="http://www.w3.org/2000/svg">
  <path fill="#00CA70" d="M44.9,-78.1C58.5,-69.9,70,-58.5,78.1,-44.9C86.3,-31.4,91,-15.7,91.5,0.3C92,16.2,88.2,32.5,79.7,45.5C71.3,58.5,58.2,68.3,44.1,76.4C30,84.6,15,91.2,-0.7,92.3C-16.4,93.5,-32.7,89.3,-46.6,81C-60.5,72.7,-71.9,60.4,-79.8,46.2C-87.7,32.1,-92.2,16,-92.2,0C-92.2,-16,-87.7,-32.1,-79,-44.7C-70.2,-57.4,-57,-66.7,-43.1,-74.7C-29.2,-82.7,-14.6,-89.5,0.5,-90.4C15.6,-91.3,31.3,-86.3,44.9,-78.1Z" transform="translate(100 100)" />
</svg>
